# Blender 4.3.2
# www.blender.org
mtllib Ground.mtl
o Ground
v -202.311539 0.418940 1.405356
v -202.311539 5.468186 1.405356
v -202.311539 0.418940 -0.735652
v -202.311539 5.468186 -0.735652
v -64.752747 0.418940 1.405356
v -64.752747 5.468186 1.405356
v -64.752747 0.418940 -0.735652
v -64.752747 5.468186 -0.735652
v -73.311897 0.418940 -0.735652
v -73.311897 5.468186 -0.735652
v -73.311897 0.418940 1.405356
v -73.311897 5.468186 1.405356
v -74.897972 0.418940 -0.735652
v -74.897972 5.468186 1.405356
v -74.897964 5.468186 -0.735652
v -74.897964 0.418940 1.405356
v -162.825043 0.418940 -0.735652
v -162.825043 5.468186 1.405356
v -162.825043 5.468186 -0.735652
v -162.825043 0.418940 1.405356
v -202.311539 3.496941 1.405356
v -202.311539 3.496941 -0.735652
v -64.752747 3.496941 -0.735652
v -64.752747 3.496941 1.405356
v -73.311897 3.496941 1.405356
v -73.311897 3.496941 -0.735652
v -74.897964 3.496941 -0.735652
v -74.897964 3.496941 1.405356
v -162.825043 3.496941 -0.735652
v -162.825043 3.496941 1.405356
v -142.841446 5.468186 -0.735652
v -142.841446 0.418940 1.405356
v -142.841461 0.418940 -0.735652
v -142.841461 5.468186 1.405356
v -142.841446 3.496941 1.405356
v -142.841446 3.496941 -0.735652
v -142.841446 7.491494 -0.735652
v -74.803596 7.491291 -0.735652
v -74.790779 7.491291 1.405356
v -142.841461 7.491494 1.405356
v -73.297302 5.991052 -0.735652
v -64.752747 5.971521 -0.735652
v -64.752747 5.971521 1.405356
v -73.297302 5.991052 1.405356
v -142.841461 6.994105 1.405356
v -162.825043 6.994105 1.405356
v -162.825043 6.994105 -0.735652
v -142.841446 6.994105 -0.735652
v -202.311539 0.418940 -0.735652
v -202.311539 0.418940 1.405356
v -202.311539 3.496941 -0.735652
v -202.311539 3.496941 1.405356
v -245.295380 0.418940 -0.735652
v -245.295380 0.418940 1.405356
v -245.295380 3.496941 -0.735652
v -245.295380 3.496941 1.405356
v -225.310272 3.496941 1.405356
v -225.310272 0.418940 1.405356
v -225.310272 0.418940 -0.735652
v -225.310272 3.496941 -0.735652
v -245.295380 10.511540 1.405356
v -245.295380 10.511540 -0.735652
v -225.310272 10.511540 1.405356
v -225.310272 10.511540 -0.735652
v -54.819065 0.418940 1.374073
v -54.819065 4.988919 1.374073
v -54.819065 0.418940 -0.735652
v -54.819065 4.988919 -0.735652
v 25.194221 0.418940 1.264348
v 25.194221 4.988919 1.264348
v 25.194221 0.418940 -0.735652
v 25.194221 4.988919 -0.735652
v -31.828133 0.418940 -0.735652
v -31.828133 4.988919 -0.735652
v -31.828133 0.418940 1.374073
v -31.828133 4.988919 1.374073
v -54.819065 5.980237 1.374073
v -54.819065 5.980237 -0.735652
v -31.828133 5.980237 1.374073
v -31.828133 5.980237 -0.735652
vn -1.0000 -0.0000 -0.0000
vn -0.0000 -0.0000 -1.0000
vn 1.0000 -0.0000 -0.0000
vn -0.0000 -0.0000 1.0000
vn -0.0000 -1.0000 -0.0000
vn -0.0000 1.0000 -0.0000
vn 0.0023 1.0000 -0.0000
vn 0.7072 0.7070 -0.0021
vn 0.0019 -0.0000 1.0000
vt 0.727288 0.713323
vt 0.727288 0.648744
vt 0.738014 0.648744
vt 0.738014 0.713323
vt 0.087176 0.432760
vt 0.087181 0.474109
vt 0.046876 0.474211
vt 0.046871 0.432862
vt 0.039055 0.432274
vt 0.039055 0.472655
vt 0.010418 0.472655
vt 0.010418 0.432274
vt 0.459577 0.121555
vt 0.459278 0.150048
vt 0.245740 0.150938
vt 0.246039 0.122445
vt 0.942424 0.014847
vt 0.990335 0.014847
vt 0.990335 0.051575
vt 0.942424 0.051575
vt 0.529246 0.649183
vt 0.727058 0.649183
vt 0.727058 0.713457
vt 0.529246 0.713457
vt 0.934778 0.148066
vt 0.943355 0.148031
vt 0.943355 0.155588
vt 0.935050 0.177306
vt 0.933546 0.014847
vt 0.933546 0.051575
vt 0.989941 0.119345
vt 0.989642 0.147838
vt 0.943654 0.119538
vt 0.094645 0.432741
vt 0.094650 0.474090
vt 0.414586 0.431934
vt 0.414592 0.473283
vt 0.566760 0.014847
vt 0.566760 0.051575
vt 0.087114 0.485077
vt 0.046878 0.484769
vt 0.935077 0.119574
vt 0.245559 0.014847
vt 0.458591 0.014847
vt 0.458591 0.051575
vt 0.245559 0.051575
vt 0.694628 0.431227
vt 0.694633 0.472576
vt 0.508693 0.473045
vt 0.508688 0.431696
vt 0.521602 0.713457
vt 0.521602 0.649183
vt 0.567646 0.121105
vt 0.567347 0.149598
vt 0.568114 0.076615
vt 0.460045 0.077065
vt 0.694620 0.366663
vt 0.508680 0.367132
vt 0.944122 0.075048
vt 0.935545 0.075083
vt 0.414578 0.367370
vt 0.094636 0.368177
vt 0.087168 0.368196
vt 0.990409 0.074855
vt 0.246506 0.077955
vt 0.039055 0.369221
vt 0.010418 0.369221
vt 0.046863 0.368297
vt 0.375000 1.000000
vt 0.527399 1.000000
vt 0.412141 0.648413
vt 0.412230 0.713296
vt 0.402095 0.713558
vt 0.402005 0.648431
vt 0.061175 0.648707
vt 0.061200 0.712982
vt 0.567040 0.178843
vt 0.414597 0.515724
vt 0.094211 0.516528
vt 0.007472 0.648418
vt 0.050275 0.648710
vt 0.050384 0.712982
vt 0.007582 0.712689
vt 0.060925 0.648609
vt 0.060989 0.712883
vt 0.039055 0.482966
vt 0.010418 0.482966
vt 0.989566 0.155113
vt 0.419785 0.648398
vt 0.519891 0.649264
vt 0.519980 0.713537
vt 0.419874 0.713158
vt 0.508697 0.505053
vt 0.414596 0.505291
vt 0.567115 0.171654
vt 0.459046 0.172104
vt 0.121578 0.076047
vt 0.121004 0.120537
vt 0.012949 0.119143
vt 0.013523 0.074653
vt 0.125000 0.500000
vt 0.125000 0.750000
vt 0.527399 0.250000
vt 0.375000 0.250000
vt 0.527399 0.000000
vt 0.988765 0.366040
vt 0.988765 0.426968
vt 0.962497 0.426968
vt 0.962497 0.366040
vt 0.117517 0.014143
vt 0.117517 0.051300
vt 0.011852 0.051300
vt 0.011852 0.014143
vt 0.834933 0.430475
vt 0.955958 0.430475
vt 0.955958 0.577614
vt 0.834933 0.577614
vt 0.834933 0.365911
vt 0.955958 0.365911
vt 0.695659 0.430476
vt 0.695659 0.365911
vt 0.738979 0.713826
vt 0.738979 0.649551
vt 0.854194 0.649551
vt 0.854194 0.713826
vt 0.239115 0.014143
vt 0.239115 0.051300
vt 0.245928 0.077650
vt 0.245354 0.122140
vt 0.889334 0.713826
vt 0.889334 0.649551
vt 0.989452 0.649551
vt 0.989452 0.713826
vt 0.988765 0.576344
vt 0.962497 0.576344
vt 0.119697 0.221926
vt 0.011641 0.220533
vt 0.608170 0.532289
vt 0.608170 0.661551
vt 0.583275 0.661551
vt 0.583275 0.532289
vt 0.707897 0.088413
vt 0.707897 0.217675
vt 0.017955 0.217675
vt 0.017955 0.088413
vt 0.544965 0.537669
vt 0.544965 0.666930
vt 0.521365 0.666930
vt 0.521365 0.537669
vt 0.291730 0.364274
vt 0.291730 0.493536
vt 0.010510 0.493536
vt 0.010510 0.364274
vt 0.702293 0.070344
vt 0.012350 0.070343
vt 0.012350 0.013773
vt 0.702293 0.010670
vt 0.449002 0.579331
vt 0.424107 0.579331
vt 0.424107 0.551292
vt 0.449002 0.551292
vt 0.009645 0.278992
vt 0.699588 0.278992
vt 0.699588 0.338665
vt 0.009645 0.335562
vt 0.980472 0.070344
vt 0.980472 0.010671
vt 0.989218 0.364274
vt 0.989218 0.493536
vt 0.986076 0.088413
vt 0.986076 0.217675
vt 0.711582 0.278992
vt 0.989761 0.278992
vt 0.989761 0.338666
vt 0.711582 0.338665
vt 0.608170 0.689590
vt 0.583275 0.689590
vt 0.986076 0.245714
vt 0.707897 0.245714
vt 0.291730 0.521575
vt 0.010510 0.521575
s 0
usemtl Ground2_Mat
f 21/1/1 2/2/1 4/3/1 22/4/1
f 26/5/2 10/6/2 8/7/2 23/8/2
f 23/9/3 8/10/3 6/11/3 24/12/3
f 30/13/4 18/14/4 2/15/4 21/16/4
f 9/17/5 7/18/5 5/19/5 11/20/5
f 19/21/6 4/22/6 2/23/6 18/24/6
f 14/25/4 12/26/4 44/27/4 39/28/4
f 13/29/5 9/17/5 11/20/5 16/30/5
f 24/31/4 6/32/4 12/26/4 25/33/4
f 27/34/2 15/35/2 10/6/2 26/5/2
f 36/36/2 31/37/2 15/35/2 27/34/2
f 33/38/5 13/29/5 16/30/5 32/39/5
f 8/7/2 10/6/2 41/40/2 42/41/2
f 25/33/4 12/26/4 14/25/4 28/42/4
f 3/43/5 17/44/5 20/45/5 1/46/5
f 22/47/2 4/48/2 19/49/2 29/50/2
f 19/21/1 18/24/1 46/51/1 47/52/1
f 35/53/4 34/54/4 18/14/4 30/13/4
f 32/55/4 35/53/4 30/13/4 20/56/4
f 3/57/2 22/47/2 29/50/2 17/58/2
f 11/59/4 25/33/4 28/42/4 16/60/4
f 33/61/2 36/36/2 27/34/2 13/62/2
f 13/62/2 27/34/2 26/5/2 9/63/2
f 5/64/4 24/31/4 25/33/4 11/59/4
f 20/56/4 30/13/4 21/16/4 1/65/4
f 7/66/3 23/9/3 24/12/3 5/67/3
f 9/63/2 26/5/2 23/8/2 7/68/2
f 1/69/6 21/70/6 52/70/6 50/69/6
f 17/58/2 29/50/2 36/36/2 33/61/2
f 16/60/4 28/42/4 35/53/4 32/55/4
f 28/42/4 14/25/4 34/54/4 35/53/4
f 31/71/1 34/72/1 40/73/1 37/74/1
f 17/44/5 33/38/5 32/39/5 20/45/5
f 29/50/2 19/49/2 31/37/2 36/36/2
f 38/75/6 37/74/6 40/73/6 39/76/6
f 34/54/4 14/25/4 39/28/4 40/77/4
f 15/35/2 31/37/2 37/78/2 38/79/2
f 42/80/7 41/81/7 44/82/7 43/83/7
f 41/81/8 38/84/8 39/85/8 44/82/8
f 6/11/3 8/10/3 42/86/3 43/87/3
f 12/26/4 6/32/4 43/88/4 44/27/4
f 10/6/2 15/35/2 38/79/2 41/40/2
f 48/89/6 47/90/6 46/91/6 45/92/6
f 31/37/2 19/49/2 47/93/2 48/94/2
f 34/72/3 31/71/3 48/89/3 45/92/3
f 18/14/4 34/54/4 45/95/4 46/96/4
f 58/97/4 57/98/4 56/99/4 54/100/4
f 3/101/6 1/102/6 50/102/6 49/101/6
f 22/103/6 3/104/6 49/104/6 51/103/6
f 21/105/6 22/103/6 51/103/6 52/105/6
f 54/106/1 56/107/1 55/108/1 53/109/1
f 59/110/5 58/111/5 54/112/5 53/113/5
f 60/114/2 55/115/2 62/116/2 64/117/2
f 60/114/2 59/118/2 53/119/2 55/115/2
f 51/120/2 49/121/2 59/118/2 60/114/2
f 52/122/6 51/123/6 60/124/6 57/125/6
f 49/126/5 50/127/5 58/111/5 59/110/5
f 50/128/4 52/129/4 57/98/4 58/97/4
f 63/130/6 64/131/6 62/132/6 61/133/6
f 55/108/1 56/107/1 61/134/1 62/135/1
f 56/99/4 57/98/4 63/136/4 61/137/4
f 57/125/3 60/124/3 64/131/3 63/130/3
usemtl Ground1_Mat
f 65/138/1 66/139/1 68/140/1 67/141/1
f 73/142/2 74/143/2 72/144/2 71/145/2
f 71/146/3 72/147/3 70/148/3 69/149/3
f 75/150/4 76/151/4 66/152/4 65/153/4
f 73/154/5 71/155/5 69/156/5 75/157/5
f 76/158/3 74/159/3 80/160/3 79/161/3
f 72/162/6 74/163/6 76/164/6 70/165/6
f 67/166/5 73/154/5 75/157/5 65/167/5
f 69/168/9 70/169/9 76/151/9 75/150/9
f 67/170/2 68/171/2 74/143/2 73/142/2
f 80/172/6 78/173/6 77/174/6 79/175/6
f 68/140/1 66/139/1 77/176/1 78/177/1
f 74/143/2 68/171/2 78/178/2 80/179/2
f 66/152/4 76/151/4 79/180/4 77/181/4
