# Blender 4.3.2
# www.blender.org
mtllib Road.mtl
o Road
v -31.832230 4.969645 1.448928
v -31.832230 5.419622 1.448928
v -31.832230 4.969645 -0.799608
v -31.832230 5.419622 -0.799608
v 25.857088 4.969645 1.448928
v 25.857088 5.419622 1.448928
v 25.857088 4.969645 -0.799608
v 25.857088 5.419622 -0.799608
v -31.786444 5.974107 1.448928
v -31.786444 6.424086 1.448928
v -31.786444 5.974107 -0.799608
v -31.786444 6.424086 -0.799608
v -54.824299 5.974107 -0.799608
v -54.824299 6.424086 -0.799608
v -54.824299 5.974107 1.448928
v -54.824299 6.424086 1.448928
v -162.852615 6.975271 1.448928
v -162.852615 7.425249 1.448928
v -162.852615 6.975271 -0.799608
v -162.852615 7.425249 -0.799608
v -149.778030 6.975271 -0.799608
v -149.778030 7.425249 -0.799608
v -149.778030 6.975271 1.448928
v -149.778030 7.425249 1.448928
v -162.817001 5.474445 1.448928
v -162.817001 5.924423 1.448928
v -162.817001 5.474445 -0.799608
v -162.817001 5.924423 -0.799608
v -173.831940 5.924423 -0.799608
v -173.831940 5.474445 1.448928
v -173.831940 5.474445 -0.799608
v -173.831940 5.924423 1.448928
v -173.795471 7.971174 1.448928
v -173.795471 8.421152 1.448928
v -173.795471 7.971174 -0.799608
v -173.795471 8.421152 -0.799608
v -169.780594 7.971174 1.448928
v -169.780594 8.421152 1.448928
v -169.780594 7.971174 -0.799608
v -169.780594 8.421152 -0.799608
v -184.070480 7.971174 1.448928
v -184.070480 8.421152 1.448928
v -184.070480 7.971174 -0.799608
v -184.070480 8.421152 -0.799608
v -182.544464 7.971174 1.448928
v -182.544464 8.421152 1.448928
v -182.544464 7.971174 -0.799608
v -182.544464 8.421152 -0.799608
v -187.566132 6.957600 1.448928
v -187.566132 7.407578 1.448928
v -187.566132 6.957600 -0.799608
v -187.566132 7.407578 -0.799608
v -186.040115 6.957600 1.448928
v -186.040115 7.407578 1.448928
v -186.040115 6.957600 -0.799608
v -186.040115 7.407578 -0.799608
v -225.317169 3.483291 1.448928
v -225.317169 3.933269 1.448928
v -225.317169 3.483291 -0.799608
v -225.317169 3.933269 -0.799608
v -202.273560 3.483291 1.448928
v -202.273560 3.933269 1.448928
v -202.273560 3.483291 -0.799608
v -202.273560 3.933269 -0.799608
v -220.072311 4.973781 1.448928
v -220.072311 5.423759 1.448928
v -220.072311 4.973781 -0.799608
v -220.072311 5.423759 -0.799608
v -218.544357 4.973781 1.448928
v -218.544357 5.423759 1.448928
v -218.544357 4.973781 -0.799608
v -218.544357 5.423759 -0.799608
v -245.446594 10.477098 1.448928
v -245.446594 10.927076 1.448928
v -245.446594 10.477098 -0.799608
v -245.446594 10.927076 -0.799608
v -225.189362 10.477098 1.448928
v -225.189362 10.927076 1.448928
v -225.189362 10.477098 -0.799608
v -225.189362 10.927076 -0.799608
v -81.840775 13.472054 1.448928
v -81.840775 13.922031 1.448928
v -81.840775 13.472054 -0.799608
v -81.840775 13.922031 -0.799608
v -79.797264 13.472054 1.448928
v -79.797264 13.922031 1.448928
v -79.797264 13.472054 -0.799608
v -79.797264 13.922031 -0.799608
v -91.818756 13.472054 1.448928
v -91.818756 13.922031 1.448928
v -91.818756 13.472054 -0.799608
v -91.818756 13.922031 -0.799608
v -89.775246 13.472054 1.448928
v -89.775246 13.922031 1.448928
v -89.775246 13.472054 -0.799608
v -89.775246 13.922031 -0.799608
v -72.853493 5.974108 1.448928
v -72.853493 6.424086 1.448928
v -72.853493 5.974108 -0.799608
v -72.853493 6.424086 -0.799608
v -73.304375 5.974108 -0.799608
v -73.304375 5.974108 1.448928
v -73.304375 6.424086 1.448928
v -73.304375 6.424086 -0.799608
v -74.810158 7.489455 -0.799608
v -74.810158 7.489455 1.448928
v -74.810158 7.939434 1.448928
v -74.810158 7.939434 -0.799608
v -64.786758 5.974108 -0.799608
v -64.786758 6.424086 1.448928
v -64.786758 6.424086 -0.799608
v -64.786758 5.974108 1.448928
v -81.884239 7.939434 -0.799608
v -81.884239 7.939434 1.448928
v -81.884239 7.489455 1.448928
v -81.884239 7.489455 -0.799608
v -142.836639 7.489455 -0.799608
v -142.836639 7.489455 1.448928
v -142.836639 7.939433 1.448928
v -142.836639 7.939433 -0.799608
v -89.754471 7.939433 -0.799608
v -89.754471 7.489455 1.448928
v -89.754471 7.939433 1.448928
v -89.754471 7.489455 -0.799608
v -182.534790 5.474445 -0.799608
v -182.534790 5.924423 -0.799608
v -182.534790 5.474445 1.448928
v -182.534790 5.924423 1.448928
v -184.066772 5.474445 -0.799608
v -184.066772 5.924423 1.448928
v -184.066772 5.924423 -0.799608
v -184.066772 5.474445 1.448928
v -202.379227 5.474445 1.448928
v -202.379227 5.924423 1.448928
v -202.379227 5.474445 -0.799608
v -202.379227 5.924423 -0.799608
v -186.057175 5.474445 -0.799608
v -186.057175 5.924423 1.448928
v -186.057175 5.924423 -0.799608
v -186.057175 5.474445 1.448928
vn -1.0000 -0.0000 -0.0000
vn -0.0000 -0.0000 -1.0000
vn 1.0000 -0.0000 -0.0000
vn -0.0000 -0.0000 1.0000
vn -0.0000 -1.0000 -0.0000
vn -0.0000 1.0000 -0.0000
vn 0.7093 0.7049 -0.0000
vn -0.7093 -0.7049 -0.0000
vt 0.507272 0.000101
vt 0.507272 0.250050
vt 0.257322 0.250050
vt 0.257322 0.000101
vt 0.000101 0.250050
vt 0.000101 0.000101
vt 0.257121 0.000101
vt 0.257121 0.250050
vt 0.257322 0.500201
vt 0.257322 0.250252
vt 0.507272 0.250252
vt 0.507272 0.500201
vt 0.257121 0.500000
vt 0.257121 0.749950
vt 0.000101 0.749950
vt 0.000101 0.500000
vt 0.257121 0.999899
vt 0.000101 0.999899
vt 0.140522 0.749956
vt 0.140522 0.999913
vt 0.000088 0.999913
vt 0.000087 0.749956
vt 0.390654 0.250219
vt 0.390654 0.500175
vt 0.140697 0.500175
vt 0.140697 0.250219
vt 0.000087 0.500000
vt 0.140522 0.500000
vt 0.000087 0.000088
vt 0.140522 0.000087
vt 0.140522 0.250044
vt 0.000087 0.250044
vt 0.390654 0.000087
vt 0.390654 0.250044
vt 0.140697 0.250044
vt 0.140697 0.000087
vt 0.412942 0.000090
vt 0.412942 0.250045
vt 0.162987 0.250045
vt 0.162987 0.000090
vt 0.162806 0.500000
vt 0.162806 0.749955
vt 0.000090 0.749955
vt 0.000090 0.500000
vt 0.162806 0.999910
vt 0.000090 0.999910
vt 0.000090 0.250045
vt 0.162806 0.250045
vt 0.000090 0.000090
vt 0.162806 0.000090
vt 0.412942 0.250226
vt 0.162987 0.500181
vt 0.162987 0.250226
vt 0.412942 0.500181
vt 0.000113 0.250056
vt 0.000113 0.000113
vt 0.394675 0.000113
vt 0.394675 0.250056
vt 0.394900 0.500226
vt 0.394900 0.250282
vt 0.644844 0.250282
vt 0.644844 0.500226
vt 0.394675 0.500000
vt 0.000113 0.500000
vt 0.394675 0.749944
vt 0.000113 0.749944
vt 0.394675 0.999887
vt 0.000113 0.999887
vt 0.394900 0.250056
vt 0.394900 0.000113
vt 0.644844 0.000113
vt 0.644844 0.250056
vt 0.500200 0.250050
vt 0.250250 0.250050
vt 0.250250 0.000100
vt 0.500200 0.000100
vt 0.000100 0.250050
vt 0.000100 0.000100
vt 0.250050 0.000100
vt 0.250050 0.250050
vt 0.250250 0.250250
vt 0.500200 0.250250
vt 0.500200 0.500200
vt 0.250250 0.500200
vt 0.250050 0.500000
vt 0.250050 0.749950
vt 0.000100 0.749950
vt 0.000100 0.500000
vt 0.250050 0.999900
vt 0.000100 0.999900
vt 0.602804 0.250055
vt 0.352859 0.250055
vt 0.352858 0.000109
vt 0.602804 0.000109
vt 0.000109 0.250055
vt 0.000109 0.000109
vt 0.352640 0.000109
vt 0.352640 0.250055
vt 0.352858 0.250273
vt 0.602804 0.250273
vt 0.602804 0.500219
vt 0.352858 0.500219
vt 0.352640 0.500000
vt 0.352640 0.749945
vt 0.000109 0.749945
vt 0.000109 0.500000
vt 0.352640 0.999891
vt 0.000109 0.999891
vt 0.271775 0.215107
vt 0.476970 0.227815
vt 0.479784 0.226456
vt 0.265892 0.221915
vt 0.260324 0.000110
vt 0.293530 0.190120
vt 0.245682 0.021420
vt 0.477275 0.191667
vt 0.047881 0.229403
vt 0.052308 0.024671
vt 0.054274 0.723983
vt 0.048106 0.927154
vt 0.056563 0.025737
vt 0.251524 0.019037
vt 0.042101 0.225232
vt 0.267166 0.942597
vt 0.259571 0.726647
vt 0.479784 0.952902
vt 0.000110 0.217638
vt 0.038708 0.004193
vt 0.685586 0.000110
vt 0.685586 0.205692
vt 0.480005 0.205692
vt 0.480005 0.000110
vt 0.248415 0.960500
vt 0.238273 0.744965
vt 0.072457 0.740454
vt 0.080089 0.925838
vt 0.476204 0.999890
vt 0.685586 0.205913
vt 0.685586 0.411494
vt 0.480005 0.411494
vt 0.000000 0.000000
vt 0.323674 0.749947
vt 0.323674 0.999893
vt 0.000107 0.999893
vt 0.000107 0.749947
vt 0.573835 0.250267
vt 0.573835 0.500214
vt 0.323888 0.500214
vt 0.323888 0.250267
vt 0.323674 0.250053
vt 0.323674 0.500000
vt 0.000107 0.500000
vt 0.000107 0.250053
vt 0.323674 0.000107
vt 0.000107 0.000107
vt 0.573835 0.250053
vt 0.323888 0.000107
vt 0.573835 0.000107
vt 0.323888 0.250053
vt 0.000074 0.250037
vt 0.054954 0.250037
vt 0.054954 0.500000
vt 0.000074 0.500000
vt 0.000074 0.000073
vt 0.054955 0.000073
vt 0.054954 0.999927
vt 0.000073 0.999927
vt 0.000073 0.749963
vt 0.054954 0.749963
vt 0.055101 0.250037
vt 0.305065 0.000073
vt 0.305065 0.250037
vt 0.055101 0.000073
vt 0.055101 0.500147
vt 0.305065 0.250184
vt 0.305065 0.500147
vt 0.055101 0.250184
vt 0.834966 0.250063
vt 0.585029 0.250063
vt 0.585029 0.000126
vt 0.834966 0.000126
vt 0.584776 0.500000
vt 0.584776 0.749937
vt 0.000126 0.749937
vt 0.000126 0.500000
vt 0.584776 0.999874
vt 0.000126 0.999874
vt 0.000126 0.250063
vt 0.584776 0.250063
vt 0.000126 0.000126
vt 0.584776 0.000126
vt 0.834966 0.500253
vt 0.585029 0.500253
vt 0.585029 0.250316
vt 0.834966 0.250316
s 0
usemtl Road_Mat
f 1/1/1 2/2/1 4/3/1 3/4/1
f 3/5/2 4/6/2 8/7/2 7/8/2
f 7/9/3 8/10/3 6/11/3 5/12/3
f 5/13/4 6/14/4 2/15/4 1/16/4
f 3/5/5 7/8/5 5/13/5 1/16/5
f 8/17/6 4/18/6 2/15/6 6/14/6
usemtl Road2_Mat
f 13/19/2 14/20/2 12/21/2 11/22/2
f 11/23/3 12/24/3 10/25/3 9/26/3
f 13/19/5 11/22/5 9/27/5 15/28/5
f 12/29/6 14/30/6 16/31/6 10/32/6
f 9/27/4 10/32/4 16/31/4 15/28/4
f 14/33/1 13/34/1 15/35/1
f 14/33/1 15/35/1 16/36/1
usemtl Road5_Mat
f 17/37/1 18/38/1 20/39/1 19/40/1
f 23/41/4 24/42/4 18/43/4 17/44/4
f 22/45/6 20/46/6 18/43/6 24/42/6
f 19/47/5 21/48/5 23/41/5 17/44/5
f 19/47/2 20/49/2 22/50/2 21/48/2
f 22/51/3 23/52/3 21/53/3
f 22/51/3 24/54/3 23/52/3
usemtl Road6_Mat
f 31/55/2 29/56/2 28/57/2 27/58/2
f 27/59/3 28/60/3 26/61/3 25/62/3
f 31/55/5 27/58/5 25/63/5 30/64/5
f 25/63/4 26/65/4 32/66/4 30/64/4
f 28/67/6 29/68/6 32/66/6 26/65/6
f 29/69/1 31/70/1 30/71/1
f 29/69/1 30/71/1 32/72/1
usemtl Road7_Mat
f 33/73/1 34/74/1 36/75/1 35/76/1
f 35/77/2 36/78/2 40/79/2 39/80/2
f 39/81/3 40/82/3 38/83/3 37/84/3
f 37/85/4 38/86/4 34/87/4 33/88/4
f 35/77/5 39/80/5 37/85/5 33/88/5
f 40/89/6 36/90/6 34/87/6 38/86/6
usemtl Road_8_Mat
f 41/73/1 42/74/1 44/75/1 43/76/1
f 43/77/2 44/78/2 48/79/2 47/80/2
f 47/81/3 48/82/3 46/83/3 45/84/3
f 45/85/4 46/86/4 42/87/4 41/88/4
f 43/77/5 47/80/5 45/85/5 41/88/5
f 48/89/6 44/90/6 42/87/6 46/86/6
usemtl Road9_Mat
f 49/73/1 50/74/1 52/75/1 51/76/1
f 51/77/2 52/78/2 56/79/2 55/80/2
f 55/81/3 56/82/3 54/83/3 53/84/3
f 53/85/4 54/86/4 50/87/4 49/88/4
f 51/77/5 55/80/5 53/85/5 49/88/5
f 56/89/6 52/90/6 50/87/6 54/86/6
usemtl Road11_Mat
f 57/91/1 58/92/1 60/93/1 59/94/1
f 59/95/2 60/96/2 64/97/2 63/98/2
f 63/99/3 64/100/3 62/101/3 61/102/3
f 61/103/4 62/104/4 58/105/4 57/106/4
f 59/95/5 63/98/5 61/103/5 57/106/5
f 64/107/6 60/108/6 58/105/6 62/104/6
usemtl Road12_Mat
f 65/73/1 66/74/1 68/75/1 67/76/1
f 67/77/2 68/78/2 72/79/2 71/80/2
f 71/81/3 72/82/3 70/83/3 69/84/3
f 69/85/4 70/86/4 66/87/4 65/88/4
f 67/77/5 71/80/5 69/85/5 65/88/5
f 72/89/6 68/90/6 66/87/6 70/86/6
usemtl Road14_Mat
f 73/73/1 74/74/1 76/75/1 75/76/1
f 75/77/2 76/78/2 80/79/2 79/80/2
f 79/81/3 80/82/3 78/83/3 77/84/3
f 77/85/4 78/86/4 74/87/4 73/88/4
f 75/77/5 79/80/5 77/85/5 73/88/5
f 80/89/6 76/90/6 74/87/6 78/86/6
usemtl Road15_Mat
f 81/73/1 82/74/1 84/75/1 83/76/1
f 83/77/2 84/78/2 88/79/2 87/80/2
f 87/81/3 88/82/3 86/83/3 85/84/3
f 85/85/4 86/86/4 82/87/4 81/88/4
f 83/77/5 87/80/5 85/85/5 81/88/5
f 88/89/6 84/90/6 82/87/6 86/86/6
usemtl Road16_Mat
f 89/73/1 90/74/1 92/75/1 91/76/1
f 91/77/2 92/78/2 96/79/2 95/80/2
f 95/81/3 96/82/3 94/83/3 93/84/3
f 93/85/4 94/86/4 90/87/4 89/88/4
f 91/77/5 95/80/5 93/85/5 89/88/5
f 96/89/6 92/90/6 90/87/6 94/86/6
usemtl Road3_Mat
f 98/109/6 100/110/6 104/111/6 103/112/6
f 112/113/4 110/114/4 98/109/4 97/115/4
f 111/116/6 100/110/6 98/109/6 110/114/6
f 104/117/2 101/118/2 105/119/2 108/120/2
f 99/121/5 97/115/5 102/122/5 101/118/5
f 100/123/2 99/121/2 101/118/2 104/117/2
f 97/115/4 98/109/4 103/112/4 102/122/4
f 102/122/4 103/112/4 107/124/4 106/125/4
f 103/112/7 104/111/7 108/126/7 107/124/7
f 101/118/8 102/122/8 106/125/8 105/119/8
f 99/121/2 100/123/2 111/127/2 109/128/2
f 99/121/5 109/128/5 112/113/5 97/115/5
f 110/129/3 112/130/3 109/131/3
f 110/129/3 109/131/3 111/132/3
f 106/125/4 107/124/4 114/133/4 115/134/4
f 108/120/2 105/119/2 116/135/2 113/136/2
f 105/119/5 106/125/5 115/134/5 116/135/5
f 107/124/6 108/126/6 113/137/6 114/133/6
f 113/138/1 116/139/1 115/140/1
f 113/141/1 115/141/1 114/141/1
usemtl Road4_Mat
f 123/142/6 121/143/6 120/144/6 119/145/6
f 118/146/1 119/147/1 120/148/1 117/149/1
f 124/150/5 122/151/5 118/152/5 117/153/5
f 121/154/2 124/150/2 117/153/2 120/155/2
f 122/151/4 123/142/4 119/145/4 118/152/4
f 121/156/3 122/157/3 124/158/3
f 121/156/3 123/159/3 122/157/3
usemtl Road6.003_Mat
f 129/160/5 125/161/5 127/162/5 132/163/5
f 129/160/2 131/164/2 126/165/2 125/161/2
f 126/166/6 131/167/6 130/168/6 128/169/6
f 127/162/4 128/169/4 130/168/4 132/163/4
f 126/170/3 127/171/3 125/172/3
f 126/170/3 128/173/3 127/171/3
f 130/174/1 129/175/1 132/176/1
f 130/174/1 131/177/1 129/175/1
usemtl Road6.004_Mat
f 133/178/1 134/179/1 136/180/1 135/181/1
f 140/182/4 138/183/4 134/184/4 133/185/4
f 139/186/6 136/187/6 134/184/6 138/183/6
f 135/188/5 137/189/5 140/182/5 133/185/5
f 135/188/2 136/190/2 139/191/2 137/189/2
f 138/192/3 140/193/3 137/194/3
f 138/192/3 137/194/3 139/195/3
