# Blender 4.3.2
# www.blender.org
mtllib Skybox.mtl
o Skybox
v -247.421173 24.720833 1.966708
v 30.943565 24.720833 1.966708
v -247.421173 -9.512269 1.966710
v 30.943565 -9.512269 1.966710
v -207.710251 24.720833 1.966708
v -167.943863 24.720833 1.966708
v -128.177460 24.720833 1.966708
v -88.411072 24.720833 1.966708
v -48.644680 24.720833 1.966708
v -8.878281 24.720833 1.966708
v -8.878281 -9.512269 1.966710
v -48.644680 -9.512269 1.966710
v -88.411072 -9.512269 1.966710
v -128.177460 -9.512269 1.966710
v -167.943863 -9.512269 1.966710
v -207.710251 -9.512269 1.966710
v -247.421173 -0.953994 1.966709
v -247.421173 7.604281 1.966709
v -247.421173 16.162556 1.966709
v 30.943565 16.162556 1.966709
v 30.943565 7.604281 1.966709
v 30.943565 -0.953994 1.966709
v -207.710251 16.162556 1.966709
v -207.710251 7.604281 1.966709
v -207.710251 -0.953994 1.966709
v -167.943863 16.162556 1.966709
v -167.943863 7.604281 1.966709
v -167.943863 -0.953994 1.966709
v -128.177460 16.162556 1.966709
v -128.177460 7.604281 1.966709
v -128.177460 -0.953994 1.966709
v -88.411072 16.162556 1.966709
v -88.411072 7.604281 1.966709
v -88.411072 -0.953994 1.966709
v -48.644680 16.162556 1.966709
v -48.644680 7.604281 1.966709
v -48.644680 -0.953994 1.966709
v -8.878281 16.162556 1.966709
v -8.878281 7.604281 1.966709
v -8.878281 -0.953994 1.966709
vn -0.0000 -0.0000 -1.0000
vt 0.143056 0.250000
vt 0.000000 0.250000
vt 0.000000 0.000000
vt 0.143056 0.000000
vt 1.000000 0.250000
vt 0.857342 0.250000
vt 0.857342 0.000000
vt 1.000000 0.000000
vt 0.714485 0.250000
vt 0.714485 0.000000
vt 0.571628 0.250000
vt 0.571628 0.000000
vt 0.428771 0.250000
vt 0.428771 0.000000
vt 0.285914 0.250000
vt 0.285913 0.000000
vt 0.285914 1.000000
vt 0.143056 1.000000
vt 0.143056 0.750000
vt 0.285914 0.750000
vt 0.143056 0.500000
vt 0.285914 0.500000
vt 0.428771 1.000000
vt 0.428771 0.750000
vt 0.428771 0.500000
vt 0.571628 1.000000
vt 0.571628 0.750000
vt 0.571628 0.500000
vt 0.714485 1.000000
vt 0.714485 0.750000
vt 0.714485 0.500000
vt 0.857342 1.000000
vt 0.857342 0.750000
vt 0.857342 0.500000
vt 1.000000 1.000000
vt 1.000000 0.750000
vt 1.000000 0.500000
vt 0.000000 1.000000
vt 0.000000 0.750000
vt 0.000000 0.500000
s 0
usemtl Skybox_Mat
f 40/1/1 22/2/1 4/3/1 11/4/1
f 17/5/1 25/6/1 16/7/1 3/8/1
f 25/6/1 28/9/1 15/10/1 16/7/1
f 28/9/1 31/11/1 14/12/1 15/10/1
f 31/11/1 34/13/1 13/14/1 14/12/1
f 34/13/1 37/15/1 12/16/1 13/14/1
f 37/15/1 40/1/1 11/4/1 12/16/1
f 9/17/1 10/18/1 38/19/1 35/20/1
f 35/20/1 38/19/1 39/21/1 36/22/1
f 36/22/1 39/21/1 40/1/1 37/15/1
f 8/23/1 9/17/1 35/20/1 32/24/1
f 32/24/1 35/20/1 36/22/1 33/25/1
f 33/25/1 36/22/1 37/15/1 34/13/1
f 7/26/1 8/23/1 32/24/1 29/27/1
f 29/27/1 32/24/1 33/25/1 30/28/1
f 30/28/1 33/25/1 34/13/1 31/11/1
f 6/29/1 7/26/1 29/27/1 26/30/1
f 26/30/1 29/27/1 30/28/1 27/31/1
f 27/31/1 30/28/1 31/11/1 28/9/1
f 5/32/1 6/29/1 26/30/1 23/33/1
f 23/33/1 26/30/1 27/31/1 24/34/1
f 24/34/1 27/31/1 28/9/1 25/6/1
f 1/35/1 5/32/1 23/33/1 19/36/1
f 19/36/1 23/33/1 24/34/1 18/37/1
f 18/37/1 24/34/1 25/6/1 17/5/1
f 10/18/1 2/38/1 20/39/1 38/19/1
f 38/19/1 20/39/1 21/40/1 39/21/1
f 39/21/1 21/40/1 22/2/1 40/1/1
